<?xml version="1.0" standalone="no"?>
<!DOCTYPE svg PUBLIC "-//W3C//DTD SVG 20010904//EN"
 "http://www.w3.org/TR/2001/REC-SVG-20010904/DTD/svg10.dtd">
<svg version="1.0" xmlns="http://www.w3.org/2000/svg"
 width="700.000000pt" height="700.000000pt" viewBox="0 0 700.000000 700.000000"
 preserveAspectRatio="xMidYMid meet">
<metadata>
Created by potrace 1.14, written by Peter Selinger 2001-2017
</metadata>
<g transform="translate(0.000000,700.000000) scale(0.100000,-0.100000)"
fill="#000000" stroke="none">
<path d="M3380 6162 c-64 -42 -161 -106 -215 -142 -55 -35 -197 -128 -315
-205 -118 -78 -253 -166 -300 -197 -47 -30 -170 -111 -275 -180 -104 -68 -224
-146 -265 -173 -41 -27 -172 -112 -290 -190 -118 -77 -280 -183 -360 -235 -79
-52 -220 -144 -312 -205 -92 -60 -230 -150 -305 -200 -76 -49 -235 -153 -353
-231 -118 -77 -254 -166 -302 -197 l-88 -57 0 -985 0 -985 87 -57 c76 -49 311
-202 578 -378 44 -29 161 -105 260 -170 99 -65 236 -155 305 -200 69 -45 168
-110 220 -143 52 -34 100 -65 105 -69 32 -26 302 -196 310 -196 6 0 69 38 140
85 258 168 363 237 510 333 83 54 206 135 275 180 69 45 213 140 320 210 107
71 239 157 293 192 l97 63 343 -224 c188 -123 374 -244 412 -269 39 -25 75
-50 80 -54 6 -5 39 -27 75 -49 36 -23 153 -99 260 -169 270 -177 443 -290 456
-298 6 -4 31 6 55 22 24 16 150 98 279 183 129 84 280 183 334 218 55 36 189
124 298 195 109 72 271 178 360 236 90 59 250 164 356 233 l192 126 0 985 0
984 -90 61 c-49 33 -92 60 -95 60 -3 0 -11 5 -18 11 -7 5 -66 45 -132 88 -165
108 -549 360 -788 516 -109 72 -205 135 -214 140 -9 6 -22 13 -27 18 -6 4
-162 106 -346 226 -300 197 -521 341 -1123 736 -437 286 -666 435 -669 434 -2
0 -55 -35 -118 -77z m195 -212 c22 -15 79 -52 126 -83 48 -31 233 -152 410
-268 178 -116 394 -257 479 -313 503 -328 498 -325 485 -331 -5 -3 -81 -52
-168 -110 -88 -58 -161 -105 -163 -105 -3 0 -10 -5 -17 -11 -7 -6 -115 -78
-242 -160 -126 -83 -324 -212 -440 -288 -546 -359 -537 -353 -560 -343 -12 6
-138 87 -281 180 -142 94 -331 218 -419 275 -237 155 -560 366 -645 423 -41
27 -82 53 -92 59 -74 45 -127 81 -128 85 0 3 117 82 260 175 143 94 343 224
443 290 101 66 273 179 382 250 110 72 265 173 345 226 159 105 146 103 225
49z m-1599 -1095 c50 -33 177 -116 283 -185 446 -292 753 -492 849 -557 57
-37 111 -72 120 -78 66 -39 212 -139 212 -145 0 -4 -6 -11 -12 -14 -7 -3 -25
-14 -39 -24 -128 -84 -546 -358 -704 -461 -72 -47 -227 -148 -345 -226 -118
-77 -272 -178 -342 -224 l-126 -82 -196 128 c-108 70 -312 204 -454 297 -141
92 -317 207 -390 255 -238 155 -535 350 -539 354 -2 2 67 51 154 108 87 56
228 148 313 204 85 56 216 141 290 190 74 48 191 125 260 170 138 90 503 329
535 350 11 7 25 10 30 7 6 -3 51 -33 101 -67z m3424 -99 c102 -67 260 -170
352 -231 92 -60 234 -153 315 -206 481 -314 643 -422 643 -429 0 -5 -17 -19
-37 -31 -21 -13 -150 -97 -288 -187 -137 -90 -315 -207 -395 -259 -80 -52
-268 -175 -418 -274 -150 -98 -277 -179 -282 -179 -4 0 -10 -3 -12 -8 -4 -10
-132 -92 -144 -92 -5 0 -121 74 -259 164 -420 276 -563 370 -730 478 -88 58
-246 162 -352 231 -106 69 -201 131 -213 137 -11 6 -20 14 -20 19 0 5 44 37
98 72 53 35 189 124 302 198 113 73 255 166 315 205 61 40 123 81 139 91 16
11 36 25 44 30 9 6 61 40 116 76 56 36 128 83 161 105 33 21 67 43 76 49 8 5
31 20 50 32 19 12 88 58 154 101 l119 80 41 -26 c22 -14 123 -79 225 -146z
m-4872 -1094 c153 -100 352 -230 592 -388 338 -221 558 -365 646 -422 l80 -52
0 -818 c-1 -612 -4 -816 -13 -815 -10 2 -141 87 -728 473 -130 85 -243 160
-252 165 -9 6 -89 57 -177 115 -89 58 -216 141 -283 185 l-123 80 0 822 0 822
78 -50 c42 -27 123 -80 180 -117z m3135 55 c62 -41 180 -118 262 -172 83 -54
215 -142 295 -194 80 -53 149 -98 153 -100 5 -1 88 -55 186 -120 97 -64 184
-120 193 -126 9 -5 47 -31 85 -56 37 -25 116 -77 174 -115 l106 -68 0 -824 c0
-671 -3 -822 -13 -818 -8 3 -61 37 -118 76 -58 38 -108 70 -111 70 -3 0 -11 5
-18 11 -12 11 -104 71 -582 384 -502 327 -670 437 -702 458 l-33 22 0 823 c0
452 3 822 6 822 3 0 56 -33 117 -73z"/>
</g>
</svg>
