<svg xmlns="http://www.w3.org/2000/svg" xmlns:xlink="http://www.w3.org/1999/xlink" xmlns:v="http://vecta.io" width="1876" height="861" viewBox="0 0 1876 861">
    <style>
        <![CDATA[svg{stroke:#000;stroke-linecap:round;stroke-linejoin:round;fill:#fff;fill-rule:evenodd;font-family:Roboto;font-size:14px;text-anchor:middle}svg text{paint-order:stroke;white-space:pre}svg .Text\.cls{stroke:none}]]>
    </style>
    <defs>
        <linearGradient x1="23.9620816%" y1="46.0431549%" x2="68.7842661%" y2="55.6019873%" id="L234668550919191100FFFFFF.grad">
            <stop stop-color="#919191" offset="0%"/>
            <stop stop-color="#FFFFFF" offset="100%"/>
        </linearGradient>
        <linearGradient x1="26.4273967%" y1="42.3814821%" x2="67.1321895%" y2="51.9064126%" id="L264267510990000100E80000.grad">
            <stop stop-color="#990000" offset="0%"/>
            <stop stop-color="#E80000" offset="100%"/>
        </linearGradient>
        <linearGradient x1="49.9999984%" y1="99.8215962%" x2="49.9999984%" y2="-0.0435244247%" id="L499949-001A1A1A404A4A4C100333333.grad">
            <stop stop-color="#1A1A1A" offset="0%"/>
            <stop stop-color="#4A4A4C" offset="40.26%"/>
            <stop stop-color="#333333" offset="100%"/>
        </linearGradient>
        <linearGradient x1="84.75%" y1="111.399%" x2="58.254%" y2="64.584%" id="L8411158640FB76550FB765541E42B1E99990000100990000.grad">
            <stop stop-color="#FB7655" offset="0%"/>
            <stop stop-color="#FB7655" offset="0%"/>
            <stop stop-color="#E42B1E" offset="41%"/>
            <stop stop-color="#990000" offset="99%"/>
            <stop stop-color="#990000" offset="100%"/>
        </linearGradient>
        <linearGradient x1="116.651%" y1="60.89%" x2="1.746%" y2="19.288%" id="L116601190871101087110199911209100911209.grad">
            <stop stop-color="#871101" offset="0%"/>
            <stop stop-color="#871101" offset="0%"/>
            <stop stop-color="#911209" offset="99%"/>
            <stop stop-color="#911209" offset="100%"/>
        </linearGradient>
        <linearGradient x1="75.774%" y1="219.327%" x2="38.978%" y2="7.829%" id="L752193870871101087110199911209100911209.grad">
            <stop stop-color="#871101" offset="0%"/>
            <stop stop-color="#871101" offset="0%"/>
            <stop stop-color="#911209" offset="99%"/>
            <stop stop-color="#911209" offset="100%"/>
        </linearGradient>
        <linearGradient x1="50.012%" y1="7.234%" x2="66.483%" y2="79.135%" id="L50766790FFFFFF0FFFFFF23E5725246DE3B2099A60003100A60003.grad">
            <stop stop-color="#FFFFFF" offset="0%"/>
            <stop stop-color="#FFFFFF" offset="0%"/>
            <stop stop-color="#E57252" offset="23%"/>
            <stop stop-color="#DE3B20" offset="46%"/>
            <stop stop-color="#A60003" offset="99%"/>
            <stop stop-color="#A60003" offset="100%"/>
        </linearGradient>
        <linearGradient x1="46.174%" y1="16.348%" x2="49.932%" y2="83.047%" id="L461649830FFFFFF0FFFFFF23E4714E56BE1A0D99A80D00100A80D00.grad">
            <stop stop-color="#FFFFFF" offset="0%"/>
            <stop stop-color="#FFFFFF" offset="0%"/>
            <stop stop-color="#E4714E" offset="23%"/>
            <stop stop-color="#BE1A0D" offset="56%"/>
            <stop stop-color="#A80D00" offset="99%"/>
            <stop stop-color="#A80D00" offset="100%"/>
        </linearGradient>
        <linearGradient x1="36.965%" y1="15.594%" x2="49.528%" y2="92.478%" id="L361549920FFFFFF0FFFFFF18E4634240C8241099A80D00100A80D00.grad">
            <stop stop-color="#FFFFFF" offset="0%"/>
            <stop stop-color="#FFFFFF" offset="0%"/>
            <stop stop-color="#E46342" offset="18%"/>
            <stop stop-color="#C82410" offset="40%"/>
            <stop stop-color="#A80D00" offset="99%"/>
            <stop stop-color="#A80D00" offset="100%"/>
        </linearGradient>
        <linearGradient x1="13.609%" y1="58.346%" x2="85.764%" y2="-46.717%" id="L135885-460FFFFFF0FFFFFF54C81F1199BF0905100BF0905.grad">
            <stop stop-color="#FFFFFF" offset="0%"/>
            <stop stop-color="#FFFFFF" offset="0%"/>
            <stop stop-color="#C81F11" offset="54%"/>
            <stop stop-color="#BF0905" offset="99%"/>
            <stop stop-color="#BF0905" offset="100%"/>
        </linearGradient>
        <linearGradient x1="27.624%" y1="21.135%" x2="50.745%" y2="79.056%" id="L272150790FFFFFF0FFFFFF31DE402499BF190B100BF190B.grad">
            <stop stop-color="#FFFFFF" offset="0%"/>
            <stop stop-color="#FFFFFF" offset="0%"/>
            <stop stop-color="#DE4024" offset="31%"/>
            <stop stop-color="#BF190B" offset="99%"/>
            <stop stop-color="#BF190B" offset="100%"/>
        </linearGradient>
        <linearGradient x1="-20.667%" y1="122.282%" x2="104.242%" y2="-6.342%" id="L-20122104-60BD00120BD00127FFFFFF17FFFFFF27C82F1C33820C0146A3160172B3130199E82609100E82609.grad">
            <stop stop-color="#BD0012" offset="0%"/>
            <stop stop-color="#BD0012" offset="0%"/>
            <stop stop-color="#FFFFFF" offset="7%"/>
            <stop stop-color="#FFFFFF" offset="17%"/>
            <stop stop-color="#C82F1C" offset="27%"/>
            <stop stop-color="#820C01" offset="33%"/>
            <stop stop-color="#A31601" offset="46%"/>
            <stop stop-color="#B31301" offset="72%"/>
            <stop stop-color="#E82609" offset="99%"/>
            <stop stop-color="#E82609" offset="100%"/>
        </linearGradient>
        <linearGradient x1="58.792%" y1="65.205%" x2="11.964%" y2="50.128%" id="L5865115008C0C0108C0C0154990C0099A80D0E100A80D0E.grad">
            <stop stop-color="#8C0C01" offset="0%"/>
            <stop stop-color="#8C0C01" offset="0%"/>
            <stop stop-color="#990C00" offset="54%"/>
            <stop stop-color="#A80D0E" offset="99%"/>
            <stop stop-color="#A80D0E" offset="100%"/>
        </linearGradient>
        <linearGradient x1="79.319%" y1="62.754%" x2="23.088%" y2="17.888%" id="L7962231707E110B07E110B999E0C001009E0C00.grad">
            <stop stop-color="#7E110B" offset="0%"/>
            <stop stop-color="#7E110B" offset="0%"/>
            <stop stop-color="#9E0C00" offset="99%"/>
            <stop stop-color="#9E0C00" offset="100%"/>
        </linearGradient>
        <linearGradient x1="92.88%" y1="74.122%" x2="59.841%" y2="39.704%" id="L92745939079130D079130D999E120B1009E120B.grad">
            <stop stop-color="#79130D" offset="0%"/>
            <stop stop-color="#79130D" offset="0%"/>
            <stop stop-color="#9E120B" offset="99%"/>
            <stop stop-color="#9E120B" offset="100%"/>
        </linearGradient>
        <radialGradient cx="32%" cy="40%" fx="32.001%" fy="40.21%" r="69.573%" id="R69324032400A80D000A80D00997E0E081007E0E08.grad">
            <stop stop-color="#A80D00" offset="0%"/>
            <stop stop-color="#A80D00" offset="0%"/>
            <stop stop-color="#7E0E08" offset="99%"/>
            <stop stop-color="#7E0E08" offset="100%"/>
        </radialGradient>
        <radialGradient cx="14%" cy="41%" fx="13.549%" fy="40.86%" r="88.386%" id="R88134013400A30C000A30C0099800E08100800E08.grad">
            <stop stop-color="#A30C00" offset="0%"/>
            <stop stop-color="#A30C00" offset="0%"/>
            <stop stop-color="#800E08" offset="99%"/>
            <stop stop-color="#800E08" offset="100%"/>
        </radialGradient>
        <linearGradient x1="56.57%" y1="101.717%" x2="3.105%" y2="11.993%" id="L5610131108B211408B2114439E100A99B3100C100B3100C.grad">
            <stop stop-color="#8B2114" offset="0%"/>
            <stop stop-color="#8B2114" offset="0%"/>
            <stop stop-color="#9E100A" offset="43%"/>
            <stop stop-color="#B3100C" offset="99%"/>
            <stop stop-color="#B3100C" offset="100%"/>
        </linearGradient>
        <linearGradient x1="30.87%" y1="35.599%" x2="92.471%" y2="100.694%" id="L3035921000B310000B3100044910F0899791C12100791C12.grad">
            <stop stop-color="#B31000" offset="0%"/>
            <stop stop-color="#B31000" offset="0%"/>
            <stop stop-color="#910F08" offset="44%"/>
            <stop stop-color="#791C12" offset="99%"/>
            <stop stop-color="#791C12" offset="100%"/>
        </linearGradient>
        <clipPath id="l4i400723rb.clip">
            <path d="M 10 53 C 11 61 15 65 19 68 L 60 68 C 65 64 70 58 70 46 L 70 15 C 70 15 71 7 78 5 C 78 5 82 2 78 0 C 78 0 58 -2 58 14 L 58 38 C 58 38 59 47 55 50 L 55 21 C 55 21 55 12 60 8 C 60 8 63 3 56 4 C 56 4 42 6 42 22 L 42 52 L 38 52 L 38 22 C 37 6 24 4 24 4 C 17 3 20 8 20 8 C 25 12 25 21 25 21 L 25 51 C 21 47 22 38 22 38 L 22 14 C 22 -2 2 0 2 0 C -2 2 2 5 2 5 C 9 7 9 15 9 15 L 9 36 L 10 53 Z" stroke="none" stroke-linejoin="miter" stroke-linecap="butt" fill="#000000" fill-rule="nonzero" stroke-width="0.9999961853100104" transform="translate(31 17)"/>
        </clipPath>
    </defs>
    <rect x="0" y="0" width="100" height="100" fill="none" stroke="none" transform="translate(605 760)"/>
    <g transform="translate(423 408)">
        <g >
            <g transform="translate(722 3)">
                <path d="M 115 5 C 115 6 115 7 115 7 C 115 7 117 23 115 30 L 3 321 C -5 343 5 366 27 375 C 48 383 72 372 81 351 L 81 351 L 193 60 C 195 54 207 43 207 43 C 208 42 208 42 209 41 L 209 41 C 209 41 209 41 209 41 C 212 33 193 19 167 9 C 142 -1 118 -3 115 5 C 115 5 115 5 115 5 L 115 5 L 115 5 Z" stroke="none" stroke-linejoin="miter" stroke-linecap="butt" fill="#000000" opacity="0.1" fill-rule="nonzero"/>
            </g>
            <g transform="translate(718 0)">
                <path d="M 115 5 C 115 6 115 7 115 7 C 115 7 117 23 115 30 L 3 321 C -5 343 5 366 27 375 C 48 383 72 372 81 351 L 81 351 L 193 60 C 195 54 207 43 207 43 C 208 42 208 42 209 41 L 209 41 C 209 41 209 41 209 41 C 212 33 193 19 167 9 C 142 -1 118 -3 115 5 C 115 5 115 5 115 5 L 115 5 L 115 5 Z" stroke="none" stroke-linejoin="miter" stroke-linecap="butt" fill="url(#L234668550919191100FFFFFF.grad)" fill-rule="nonzero"/>
            </g>
            <g transform="translate(729 137)">
                <path d="M 139 0 L 59 210 C 53 225 35 233 20 227 C 4 221 -4 203 2 188 L 2 188 L 53 54 C 53 54 60 44 73 36 C 85 29 96 30 110 24 C 124 18 139 0 139 0 L 139 0 Z" stroke="none" stroke-linejoin="miter" stroke-linecap="butt" fill="url(#L264267510990000100E80000.grad)" fill-rule="nonzero"/>
            </g>
            <g transform="translate(850 10)">
                <path d="M 58 25 C 59 20 48 12 32 6 C 16 0 2 -2 0 2 C -1 7 10 15 26 21 C 42 27 56 29 58 25 L 58 25 Z" stroke="none" stroke-linejoin="miter" stroke-linecap="butt" fill="#333333" fill-rule="nonzero"/>
            </g>
            <g transform="translate(718 7)">
                <path d="M 114 0 C 114 0 117 15 114 22 L 3 313 C -5 334 5 358 27 366 C 30 368 34 369 38 369 C 24 358 17 339 24 321 L 24 321 L 133 36 C 133 36 118 22 114 0 L 114 0 Z" stroke="none" stroke-linejoin="miter" stroke-linecap="butt" opacity="0.3" fill-rule="nonzero"/>
            </g>
            <g transform="translate(794 192)">
                <path d="M 0 3 C 0 1 1 0 3 0 C 5 0 7 1 7 3 C 7 5 5 7 3 7 C 1 7 0 5 0 3 Z" stroke="none" stroke-linejoin="miter" stroke-linecap="butt" opacity="0.5" fill-rule="nonzero"/>
            </g>
            <g transform="translate(813 213)">
                <path d="M 0 5 C 0 2 2 0 5 0 C 8 0 10 2 10 5 C 10 8 8 10 5 10 C 2 10 0 8 0 5 Z" stroke="none" stroke-linejoin="miter" stroke-linecap="butt" opacity="0.5" fill-rule="nonzero"/>
            </g>
            <g transform="translate(777 237)">
                <path d="M 0 9 C 0 4 4 0 9 0 C 14 0 18 4 18 9 C 18 14 14 18 9 18 C 4 18 0 14 0 9 Z" stroke="none" stroke-linejoin="miter" stroke-linecap="butt" opacity="0.5" fill-rule="nonzero"/>
            </g>
            <g transform="translate(766 258)">
                <path d="M 0 5 C 0 2 2 0 5 0 C 8 0 10 2 10 5 C 10 8 8 10 5 10 C 2 10 0 8 0 5 Z" stroke="none" stroke-linejoin="miter" stroke-linecap="butt" opacity="0.5" fill-rule="nonzero"/>
            </g>
            <g transform="translate(787 296)">
                <path d="M 0 3 C 0 1 1 0 3 0 C 5 0 7 1 7 3 C 7 5 5 7 3 7 C 1 7 0 5 0 3 Z" stroke="none" stroke-linejoin="miter" stroke-linecap="butt" opacity="0.5" fill-rule="nonzero"/>
            </g>
            <g transform="translate(3 71)">
                <path d="M 216 106 C 221 110 230 107 236 101 C 242 94 243 85 238 81 C 234 77 225 79 219 86 C 212 93 211 102 216 106 L 216 106 Z M 202 119 C 200 119 198 121 200 122 C 203 123 204 125 204 128 C 202 142 185 157 178 163 C 176 164 179 168 180 167 C 184 164 192 158 198 150 C 188 172 168 202 160 212 C 130 253 85 291 54 291 C 29 291 8 274 3 250 C 3 247 -1 246 0 250 C 6 284 32 297 64 297 C 98 297 139 272 162 246 C 198 205 221 157 215 130 C 213 120 206 118 202 119 L 202 119 Z M 425 209 C 435 207 442 201 442 193 C 442 192 441 192 441 193 C 441 198 435 202 429 203 C 414 205 384 188 371 170 C 386 176 416 168 430 157 C 444 148 449 137 450 129 C 451 114 436 106 414 114 C 400 120 384 132 367 155 C 385 125 421 76 456 45 C 499 7 523 14 485 55 C 469 71 439 92 419 102 C 412 104 415 108 420 106 C 442 96 471 77 489 60 C 541 10 497 -27 440 26 C 400 61 375 99 353 148 C 345 157 340 165 333 170 C 332 171 331 172 331 173 C 312 189 282 211 263 211 C 250 212 244 202 246 189 C 250 169 271 145 289 137 C 312 126 325 147 295 163 C 283 169 270 172 264 172 C 257 172 258 175 264 175 C 273 176 288 172 298 167 C 329 152 331 124 297 123 C 260 122 216 153 216 193 C 217 211 231 220 250 220 C 283 220 312 195 336 173 C 339 170 342 167 346 164 C 337 185 333 205 335 219 C 336 230 342 235 347 239 C 348 239 350 239 349 237 C 342 228 344 204 353 180 C 361 196 392 216 425 209 L 425 209 Z M 386 140 C 424 106 439 137 415 155 C 402 165 377 172 369 167 L 368 166 C 367 165 366 163 365 162 C 371 154 379 147 386 140 L 386 140 Z M 597 102 C 613 103 606 85 591 90 C 584 92 577 105 572 116 C 557 139 531 170 514 186 C 498 200 483 203 501 178 C 508 168 518 157 523 146 C 535 119 509 107 487 123 C 474 133 458 152 444 163 C 441 166 442 171 445 168 C 456 159 474 140 490 128 C 504 118 509 125 501 133 C 491 145 472 166 467 180 C 461 200 469 209 482 209 C 500 209 527 181 545 158 C 551 151 558 142 564 133 C 548 164 531 195 511 223 C 482 262 445 292 411 292 C 386 292 364 275 360 251 C 359 248 356 247 356 251 C 362 285 388 298 420 298 C 455 298 488 278 512 253 C 559 203 565 147 579 116 C 586 102 592 101 597 102 L 597 102 Z M 790 54 C 797 42 796 33 780 33 C 768 33 746 42 735 50 C 733 52 734 53 737 52 C 739 51 741 50 743 49 C 755 43 750 56 748 61 C 734 85 709 119 697 136 C 690 144 683 152 677 159 C 664 171 640 192 621 199 C 561 221 638 119 644 111 C 658 93 690 62 700 46 C 707 35 706 25 690 25 C 678 26 656 34 645 42 C 643 45 644 46 647 45 C 649 44 651 43 653 42 C 665 35 660 49 658 53 C 644 78 619 112 607 128 C 596 143 583 157 573 165 C 569 168 571 171 575 168 C 579 166 584 161 590 154 C 579 176 571 207 599 211 C 624 214 653 189 672 170 C 674 168 676 166 679 164 C 679 163 680 163 680 162 C 669 184 660 215 689 218 C 721 222 760 180 775 165 C 778 162 777 157 772 162 C 763 171 733 198 711 207 C 651 229 727 127 734 118 C 748 100 780 69 790 54 L 790 54 Z" stroke="none" stroke-linejoin="miter" stroke-linecap="butt" fill="#000000" opacity="0.1" fill-rule="nonzero"/>
            </g>
            <g transform="translate(0 68)">
                <path d="M 216 106 C 221 110 230 107 236 101 C 242 94 243 85 238 81 C 233 77 224 79 218 86 C 212 93 211 102 216 106 L 216 106 Z M 202 119 C 200 119 198 121 200 122 C 203 123 204 125 204 128 C 202 142 185 157 178 163 C 176 164 179 168 180 167 C 184 164 192 158 198 150 C 188 172 168 202 160 212 C 130 253 85 291 54 291 C 29 291 8 274 3 250 C 3 247 -1 246 0 250 C 6 284 32 297 64 297 C 98 297 139 272 162 246 C 198 205 221 157 215 130 C 212 120 206 118 202 119 L 202 119 Z M 425 209 C 434 207 442 201 442 193 C 442 192 441 192 441 193 C 441 198 435 202 429 203 C 414 205 384 188 370 170 C 385 176 416 168 430 157 C 443 148 449 137 450 129 C 451 114 436 106 414 114 C 400 120 384 132 366 155 C 385 125 420 76 456 45 C 498 7 523 14 485 55 C 469 71 439 92 418 102 C 412 104 415 108 420 106 C 442 96 471 77 488 60 C 540 10 497 -27 439 26 C 400 61 375 99 353 148 C 345 157 339 165 332 170 C 332 171 331 172 330 173 C 311 189 281 211 263 211 C 249 212 244 202 246 189 C 250 169 271 145 288 137 C 312 126 325 147 295 163 C 283 169 269 172 264 172 C 257 172 258 175 263 175 C 273 176 288 172 297 167 C 328 152 330 124 297 123 C 260 122 216 153 216 193 C 217 211 231 220 250 220 C 283 220 312 195 336 173 C 339 170 342 167 346 164 C 337 185 333 205 335 219 C 336 230 342 235 347 239 C 348 239 350 239 349 237 C 342 228 344 204 353 180 C 361 196 392 216 425 209 L 425 209 Z M 386 140 C 424 106 439 137 414 155 C 402 165 377 172 369 167 L 368 166 C 367 165 366 163 365 161 C 371 154 378 147 386 140 L 386 140 Z M 597 102 C 612 103 606 85 591 90 C 584 92 577 105 572 116 C 557 139 531 170 513 186 C 498 200 483 203 501 178 C 508 168 517 157 523 146 C 535 119 509 107 487 123 C 474 133 457 152 444 163 C 440 166 441 171 445 168 C 456 159 474 140 490 128 C 503 118 509 125 501 133 C 491 145 472 166 467 180 C 461 200 468 209 482 209 C 500 209 527 181 545 158 C 551 151 558 142 563 133 C 548 164 531 195 511 223 C 481 262 445 292 410 292 C 386 292 364 275 360 251 C 359 248 356 247 356 251 C 362 285 388 298 420 298 C 454 298 488 278 511 253 C 559 203 564 147 579 116 C 586 102 592 101 597 102 L 597 102 Z M 789 54 C 796 42 796 33 780 33 C 768 33 745 42 735 50 C 733 52 734 53 737 52 C 739 51 741 50 743 49 C 755 43 750 56 748 61 C 734 85 709 119 696 136 C 690 144 683 152 677 159 C 664 171 640 192 621 199 C 561 221 637 119 644 111 C 658 93 690 62 699 46 C 706 34 706 25 690 25 C 678 26 655 34 645 42 C 643 44 644 46 647 44 C 649 44 651 42 653 42 C 665 35 660 48 658 53 C 644 77 619 111 606 128 C 596 142 583 156 573 164 C 569 168 571 171 575 168 C 579 166 584 160 590 154 C 579 176 570 207 599 210 C 624 214 653 189 672 170 C 674 168 676 166 678 164 C 679 163 679 162 680 162 C 669 184 660 214 689 218 C 720 222 759 180 775 164 C 777 162 777 156 772 162 C 763 171 733 198 711 206 C 651 229 727 127 734 118 C 748 100 780 69 789 54 L 789 54 Z" stroke="none" stroke-linejoin="miter" stroke-linecap="butt" fill="url(#L499949-001A1A1A404A4A4C100333333.grad)" fill-rule="nonzero"/>
            </g>
        </g>
    </g>
    <g transform="translate(1495 254)">
        <g >
            <g transform="translate(131 479)">
                <path d="M 0 0 L 32 0 L 32 100 L 0 100 Z" stroke="none" stroke-linejoin="miter" stroke-linecap="butt" fill="#acb3ba" fill-rule="nonzero"/>
            </g>
            <g transform="translate(67 562)">
                <path d="M 136 0 L 25 0 C 11 0 0 11 0 25 L 0 32 L 161 32 L 161 25 C 161 11 150 0 136 0 Z" stroke="none" stroke-linejoin="miter" stroke-linecap="butt" fill="#cdd6e0" fill-rule="nonzero"/>
            </g>
            <g transform="translate(0 87)">
                <path d="M 282 0 L 282 0 L 12 0 L 12 0 C 25 84 21 171 5 255 C 2 270 0 285 0 296 C 0 376 66 442 146 442 C 227 442 292 376 292 296 C 292 283 291 270 287 255 C 272 171 269 85 282 0 Z" stroke="none" stroke-linejoin="miter" stroke-linecap="butt" fill="#f2f2f2" fill-rule="nonzero"/>
            </g>
            <g transform="translate(20 248)">
                <path d="M 238 0 L 16 0 C 14 32 10 64 4 98 C 1 111 0 125 0 136 C 0 207 57 264 127 264 C 198 264 255 207 255 136 C 255 125 254 113 251 98 C 244 64 240 32 238 0 Z" stroke="none" stroke-linejoin="miter" stroke-linecap="butt" fill="#84dbff" fill-rule="nonzero"/>
            </g>
            <g transform="translate(80 0)">
                <path d="M 141 0 L 0 248 L 33 248 L 157 28 L 300 28 L 300 0 Z" stroke="none" stroke-linejoin="miter" stroke-linecap="butt" fill="#ced4df" fill-rule="nonzero"/>
            </g>
        </g>
    </g>
    <g transform="translate(0 428)">
        <g >
            <g transform="translate(76 76)">
                <path d="M 214 171 L 0 298 L 277 279 L 298 0 L 214 171 Z" stroke="none" stroke-linejoin="miter" stroke-linecap="butt" fill="url(#L8411158640FB76550FB765541E42B1E99990000100990000.grad)" fill-rule="nonzero"/>
            </g>
            <g transform="translate(265 190)">
                <path d="M 89 164 L 65 0 L 0 86 L 89 164 Z" stroke="none" stroke-linejoin="miter" stroke-linecap="butt" fill="url(#L116601190871101087110199911209100911209.grad)" fill-rule="nonzero"/>
            </g>
            <g transform="translate(77 341)">
                <path d="M 277 14 L 102 0 L 0 32 L 277 14 Z" stroke="none" stroke-linejoin="miter" stroke-linecap="butt" fill="url(#L752193870871101087110199911209100911209.grad)" fill-rule="nonzero"/>
            </g>
            <g transform="translate(25 230)">
                <path d="M 52 143 L 96 0 L 0 20 L 52 143 Z" stroke="none" stroke-linejoin="miter" stroke-linecap="butt" fill="url(#L50766790FFFFFF0FFFFFF23E5725246DE3B2099A60003100A60003.grad)" fill-rule="nonzero"/>
            </g>
            <g transform="translate(110 119)">
                <path d="M 155 157 L 115 0 L 0 107 L 155 157 Z" stroke="none" stroke-linejoin="miter" stroke-linecap="butt" fill="url(#L461649830FFFFFF0FFFFFF23E4714E56BE1A0D99A80D00100A80D00.grad)" fill-rule="nonzero"/>
            </g>
            <g transform="translate(227 33)">
                <path d="M 139 89 L 30 0 L 0 98 L 139 89 Z" stroke="none" stroke-linejoin="miter" stroke-linecap="butt" fill="url(#L361549920FFFFFF0FFFFFF18E4634240C8241099A80D00100A80D00.grad)" fill-rule="nonzero"/>
            </g>
            <g transform="translate(211 1)">
                <path d="M 104 0 L 40 36 L 0 0 L 104 0 Z" stroke="none" stroke-linejoin="miter" stroke-linecap="butt" fill="url(#L135885-460FFFFFF0FFFFFF54C81F1199BF0905100BF0905.grad)" fill-rule="nonzero"/>
            </g>
            <g transform="translate(0 192)">
                <path d="M 0 107 L 27 58 L 5 0 L 0 107 Z" stroke="none" stroke-linejoin="miter" stroke-linecap="butt" fill="url(#L272150790FFFFFF0FFFFFF31DE402499BF190B100BF190B.grad)" fill-rule="nonzero"/>
            </g>
            <g transform="translate(4 0)">
                <path d="M 0 190 L 22 252 L 116 231 L 224 130 L 254 34 L 207 0 L 125 30 C 99 54 50 102 48 102 C 46 103 15 162 0 190 Z" stroke="none" stroke-linejoin="miter" stroke-linecap="butt" fill-rule="nonzero"/>
            </g>
            <g transform="translate(13 9)">
                <path d="M 67 70 C 123 15 194 -18 222 10 C 249 38 220 105 165 160 C 109 216 38 250 11 222 C -17 194 11 125 67 70 Z" stroke="none" stroke-linejoin="miter" stroke-linecap="butt" fill="url(#L-20122104-60BD00120BD00127FFFFFF17FFFFFF27C82F1C33820C0146A3160172B3130199E82609100E82609.grad)" fill-rule="nonzero"/>
            </g>
            <g transform="translate(77 230)">
                <path d="M 0 143 L 43 0 L 187 46 C 135 95 77 136 0 143 Z" stroke="none" stroke-linejoin="miter" stroke-linecap="butt" fill="url(#L5865115008C0C0108C0C0154990C0099A80D0E100A80D0E.grad)" fill-rule="nonzero"/>
            </g>
            <g transform="translate(228 121)">
                <path d="M 0 9 L 37 155 C 80 110 119 61 138 0 L 0 9 Z" stroke="none" stroke-linejoin="miter" stroke-linecap="butt" fill="url(#L7962231707E110B07E110B999E0C001009E0C00.grad)" fill-rule="nonzero"/>
            </g>
            <g transform="translate(257 2)">
                <path d="M 108 120 C 123 76 127 12 57 0 L 0 32 L 108 120 Z" stroke="none" stroke-linejoin="miter" stroke-linecap="butt" fill="url(#L92745939079130D079130D999E120B1009E120B.grad)" fill-rule="nonzero"/>
            </g>
            <g transform="translate(0 252)">
                <path d="M 0 47 C 2 120 55 121 78 122 L 25 0 L 0 47 Z" stroke="none" stroke-linejoin="miter" stroke-linecap="butt" fill="#9e1209" fill-rule="nonzero"/>
            </g>
            <g transform="translate(228 121)">
                <path d="M 0 9 C 33 30 100 71 102 71 C 104 73 131 26 137 0 L 0 9 Z" stroke="none" stroke-linejoin="miter" stroke-linecap="butt" fill="url(#R69324032400A80D000A80D00997E0E081007E0E08.grad)" fill-rule="nonzero"/>
            </g>
            <g transform="translate(121 230)">
                <path d="M 0 0 L 58 111 C 92 93 119 70 143 46 L 0 0 Z" stroke="none" stroke-linejoin="miter" stroke-linecap="butt" fill="url(#R88134013400A30C000A30C0099800E08100800E08.grad)" fill-rule="nonzero"/>
            </g>
            <g transform="translate(17 252)">
                <path d="M 8 0 L 0 97 C 15 119 37 120 59 119 C 43 79 11 -2 8 0 Z" stroke="none" stroke-linejoin="miter" stroke-linecap="butt" fill="url(#L5610131108B211408B2114439E100A99B3100C100B3100C.grad)" fill-rule="nonzero"/>
            </g>
            <g transform="translate(257 1)">
                <path d="M 0 32 L 115 48 C 109 22 90 5 58 0 L 0 32 Z" stroke="none" stroke-linejoin="miter" stroke-linecap="butt" fill="url(#L3035921000B310000B3100044910F0899791C12100791C12.grad)" fill-rule="nonzero"/>
            </g>
        </g>
    </g>
    <path d="M 362 240 L 28 240 C 13 240 0 227 0 212 L 0 28 C 0 13 13 0 28 0 L 361 0 C 376 0 389 13 389 28 L 389 212 C 389 227 377 240 362 240 L 362 240 Z M 28 19 C 23 19 19 23 19 28 L 19 212 C 19 218 23 221 28 221 L 361 221 C 367 221 370 217 370 212 L 370 28 C 370 22 366 19 361 19 C 362 19 28 19 28 19 L 28 19 Z M 56 184 L 56 56 L 93 56 L 130 103 L 168 56 L 205 56 L 205 184 L 168 184 L 168 111 L 130 157 L 93 111 L 93 184 L 56 184 L 56 184 Z M 290 184 L 234 122 L 271 122 L 271 56 L 309 56 L 309 121 L 346 121 L 290 184 L 290 184 Z" stroke="none" stroke-linejoin="miter" stroke-linecap="butt" fill="#000000" fill-rule="nonzero" transform="translate(20 83)"/>
    <g transform="translate(524 84)">
        <g >
            <g transform="translate(57 175)">
                <path d="M 144 25 C 144 39 112 50 72 50 C 32 50 0 39 0 25 C 0 11 32 0 72 0 C 112 0 144 11 144 25 L 144 25 Z M 144 25" stroke="none" stroke-linejoin="miter" stroke-linecap="butt" fill="#9edcf2" fill-rule="nonzero" stroke-width="0.9999961853100104"/>
            </g>
            <g transform="translate(88 192)">
                <path d="M 144 25 C 144 39 112 50 72 50 C 32 50 0 39 0 25 C 0 11 32 0 72 0 C 112 0 144 11 144 25 L 144 25 Z M 144 25" stroke="none" stroke-linejoin="miter" stroke-linecap="butt" fill="#7dbce7" fill-rule="nonzero" stroke-width="0.9999961853100104" transform="translate(-31 -17)" clip-path="url(#l4i400723rb.clip)"/>
            </g>
            <g transform="translate(45 126)">
                <path d="M 2 0.00001 L 0 7 C 0 7 0 10 2 10 C 5 10 4 8 4 7 L 2 0 L 2 0 Z M 2 0" stroke="none" stroke-linejoin="miter" stroke-linecap="butt" fill="#9edcf2" fill-rule="nonzero" stroke-width="0.9999961853100104"/>
            </g>
            <g>
                <path d="M 256 96 L 256 95 C 235 90 213 90 200 91 C 202 83 203 74 203 64 C 203 50 198 39 189 30 C 190 25 192 14 187 0 C 187 0 177 -3 155 12 C 146 10 137 9 128 9 C 117 9 107 10 97 13 C 74 -3 64 0 64 0 C 58 17 62 29 63 32 C 55 40 51 51 51 64 C 51 74 52 83 54 91 C 41 90 20 90 0 95 L 0 95 C 21 91 42 91 55 92 C 55 93 56 95 57 96 C 44 97 22 99 0 105 L 1 105 C 22 99 44 98 57 97 C 65 112 80 121 108 124 C 104 127 100 131 98 139 C 93 141 76 147 66 130 C 66 130 61 120 50 119 C 50 119 40 119 49 126 C 49 126 56 129 61 141 C 61 141 67 162 97 155 L 97 177 C 97 177 97 185 90 187 C 90 187 85 190 90 192 C 90 192 109 193 109 177 L 109 154 C 109 154 109 144 113 141 L 113 180 C 113 180 113 189 108 193 C 108 193 105 198 112 197 C 112 197 125 195 126 179 L 126 140 L 129 140 L 130 179 C 130 195 144 197 144 197 C 151 198 148 193 148 193 C 143 189 142 180 142 180 L 142 141 C 147 145 146 154 146 154 L 146 177 C 146 193 166 192 166 192 C 170 190 166 187 166 187 C 159 185 158 177 158 177 L 158 146 C 158 134 153 127 148 124 C 177 121 191 112 197 97 C 210 98 233 99 255 105 L 255 105 C 233 98 211 97 198 96 C 198 95 199 93 199 92 C 213 91 235 91 256 96 L 256 96 Z M 256 96" stroke="none" stroke-linejoin="miter" stroke-linecap="butt" fill="#010101" fill-rule="nonzero" stroke-width="0.9999961853100104"/>
            </g>
            <g transform="translate(70 58)">
                <path d="M 105 6 C 111 11 114 18 114 25 C 114 60 89 61 57 61 C 26 61 0 56 0 25 C 0 18 4 11 10 6 C 20 -4 38 1 57 1 C 77 1 94 -4 105 6 L 105 6 Z M 105 6" stroke="none" stroke-linejoin="miter" stroke-linecap="butt" fill="#f5ccb3" fill-rule="nonzero" stroke-width="0.9999961853100104"/>
            </g>
            <g transform="translate(85 68)">
                <path d="M 24 17 C 24 27 19 34 12 34 C 5 34 0 27 0 17 C 0 8 5 0 12 0 C 19 0 24 8 24 17 L 24 17 Z M 24 17" stroke="none" stroke-linejoin="miter" stroke-linecap="butt" fill-rule="nonzero" stroke-width="0.9999961853100104"/>
            </g>
            <g transform="translate(89 74)">
                <path d="M 16 11 C 16 18 12 23 8 23 C 4 23 0 18 0 11 C 0 5 4 0 8 0 C 12 0 16 5 16 11 L 16 11 Z M 16 11" stroke="none" stroke-linejoin="miter" stroke-linecap="butt" fill="#af5c51" fill-rule="nonzero" stroke-width="0.9999961853100104"/>
            </g>
            <g transform="translate(148 68)">
                <path d="M 24 17 C 24 27 19 34 12 34 C 5 34 0 27 0 17 C 0 8 5 0 12 0 C 18 0 24 8 24 17 L 24 17 Z M 24 17" stroke="none" stroke-linejoin="miter" stroke-linecap="butt" fill-rule="nonzero" stroke-width="0.9999961853100104"/>
            </g>
            <g transform="translate(153 74)">
                <path d="M 16 11 C 16 18 12 23 8 23 C 4 23 0 18 0 11 C 0 5 4 0 8 0 C 12 0 16 5 16 11 L 16 11 Z M 16 11" stroke="none" stroke-linejoin="miter" stroke-linecap="butt" fill="#af5c51" fill-rule="nonzero" stroke-width="0.9999961853100104"/>
            </g>
            <g transform="translate(125 97)">
                <path d="M 6 3 C 6 5 5 6 3 6 C 1 6 0 5 0 3 C 0 1 1 0 3 0 C 5 0 6 1 6 3 L 6 3 Z M 6 3" stroke="none" stroke-linejoin="miter" stroke-linecap="butt" fill="#af5c51" fill-rule="nonzero" stroke-width="0.9999961853100104"/>
            </g>
            <g transform="translate(121 107)">
                <path d="M 0 1 C 0 1 0 0 1 0 C 1 0 2 0 2 1 C 3 3 5 4 7 4 C 9 4 11 3 12 1 C 12 0 13 0 13 0 C 14 0 14 1 14 1 C 13 4 10 6 7 6 C 4 6 1 4 0 1 L 0 1 Z M 0 1" stroke="none" stroke-linejoin="miter" stroke-linecap="butt" fill="#af5c51" fill-rule="nonzero" stroke-width="0.9999961853100104"/>
            </g>
            <g transform="translate(50 120)">
                <path d="M 4 1 C 4 2 3 3 2 3 C 1 3 0 2 0 1 C 0 1 1 0 2 0 C 3 0 4 1 4 1 L 4 1 Z M 4 1" stroke="none" stroke-linejoin="miter" stroke-linecap="butt" fill="#c4e5d9" fill-rule="nonzero" stroke-width="0.9999961853100104"/>
            </g>
            <g transform="translate(56 123)">
                <path d="M 4 1 C 4 2 3 3 2 3 C 1 3 0 2 0 1 C 0 1 1 0 2 0 C 3 0 4 1 4 1 L 4 1 Z M 4 1" stroke="none" stroke-linejoin="miter" stroke-linecap="butt" fill="#c4e5d9" fill-rule="nonzero" stroke-width="0.9999961853100104"/>
            </g>
            <g transform="translate(60 128)">
                <path d="M 4 1 C 4 2 3 3 2 3 C 1 3 0 2 0 1 C 0 1 1 0 2 0 C 3 0 4 1 4 1 L 4 1 Z M 4 1" stroke="none" stroke-linejoin="miter" stroke-linecap="butt" fill="#c4e5d9" fill-rule="nonzero" stroke-width="0.9999961853100104"/>
            </g>
            <g transform="translate(63 132)">
                <path d="M 4 1 C 4 2 3 3 2 3 C 1 3 0 2 0 1 C 0 1 1 0 2 0 C 3 0 4 1 4 1 L 4 1 Z M 4 1" stroke="none" stroke-linejoin="miter" stroke-linecap="butt" fill="#c4e5d9" fill-rule="nonzero" stroke-width="0.9999961853100104"/>
            </g>
            <g transform="translate(66 137)">
                <path d="M 4 1 C 4 2 3 3 2 3 C 1 3 0 2 0 1 C 0 1 1 0 2 0 C 3 0 4 1 4 1 L 4 1 Z M 4 1" stroke="none" stroke-linejoin="miter" stroke-linecap="butt" fill="#c4e5d9" fill-rule="nonzero" stroke-width="0.9999961853100104"/>
            </g>
            <g transform="translate(71 141)">
                <path d="M 4 1 C 4 2 3 3 2 3 C 1 3 0 2 0 1 C 0 1 1 0 2 0 C 3 0 4 1 4 1 L 4 1 Z M 4 1" stroke="none" stroke-linejoin="miter" stroke-linecap="butt" fill="#c4e5d9" fill-rule="nonzero" stroke-width="0.9999961853100104"/>
            </g>
            <g transform="translate(78 143)">
                <path d="M 4 1 C 4 2 3 3 2 3 C 1 3 0 2 0 1 C 0 1 1 0 2 0 C 3 0 4 1 4 1 L 4 1 Z M 4 1" stroke="none" stroke-linejoin="miter" stroke-linecap="butt" fill="#c4e5d9" fill-rule="nonzero" stroke-width="0.9999961853100104"/>
            </g>
            <g transform="translate(85 143)">
                <path d="M 4 1 C 4 2 3 3 2 3 C 1 3 0 2 0 1 C 0 1 1 0 2 0 C 3 0 4 1 4 1 L 4 1 Z M 4 1" stroke="none" stroke-linejoin="miter" stroke-linecap="butt" fill="#c4e5d9" fill-rule="nonzero" stroke-width="0.9999961853100104"/>
            </g>
            <g transform="translate(91 142)">
                <path d="M 4 1 C 4 2 3 3 2 3 C 1 3 0 2 0 1 C 0 1 1 0 2 0 C 3 0 4 1 4 1 L 4 1 Z M 4 1" stroke="none" stroke-linejoin="miter" stroke-linecap="butt" fill="#c4e5d9" fill-rule="nonzero" stroke-width="0.9999961853100104"/>
            </g>
        </g>
    </g>
    <path d="M 141 26 L 144 29 C 151 34 155 40 156 47 C 163 46 173 47 177 50 L 177 50 L 180 52 L 180 53 C 179 56 178 57 178 57 C 171 70 158 70 152 70 C 137 109 104 130 60 130 C 39 130 24 124 13 111 C -1 94 -1 72 0 65 L 0 65 L 1 63 L 123 63 C 130 63 135 62 137 60 C 134 56 133 52 133 49 C 133 42 135 35 138 30 L 138 30 L 141 26 Z M 247 34 C 248 34 249 34 250 35 C 251 36 251 37 251 39 L 251 82 C 251 90 249 96 244 101 C 239 106 233 108 225 108 C 218 108 212 106 207 101 C 202 96 199 89 199 82 C 199 75 202 69 207 64 C 212 59 218 56 225 56 C 232 56 237 58 242 62 L 242 39 C 242 37 242 36 243 35 C 244 34 245 34 247 34 Z M 283 56 C 290 56 296 59 302 64 C 304 66 306 69 307 72 C 308 75 309 79 309 82 C 309 90 307 96 302 101 C 296 106 290 108 283 108 C 276 108 270 106 265 101 C 260 96 257 89 257 82 C 257 75 260 69 265 64 C 270 59 276 56 283 56 Z M 341 56 C 347 56 353 58 358 63 C 359 64 359 65 359 66 C 359 68 359 69 358 70 C 357 71 356 71 354 71 C 353 71 352 71 351 70 C 350 69 348 68 346 67 C 345 66 343 66 341 66 C 338 66 336 66 334 67 C 332 68 331 69 329 71 C 328 72 326 74 326 76 C 325 78 324 80 324 82 C 324 85 325 87 326 89 C 326 91 328 92 329 94 C 331 95 332 96 334 97 C 336 98 338 99 341 99 C 343 99 345 98 346 98 C 348 97 350 96 351 95 C 352 94 353 94 354 94 C 356 94 357 94 358 95 C 359 96 359 97 359 98 C 359 100 359 101 358 102 C 353 106 347 108 341 108 C 333 108 327 106 322 101 C 317 96 315 89 315 82 C 315 75 317 69 322 64 C 327 59 333 56 341 56 Z M 370 34 C 371 34 372 34 373 35 C 374 36 375 37 375 39 L 375 75 L 402 57 C 403 56 404 56 405 56 C 406 56 406 56 407 57 C 407 57 408 57 408 58 C 409 58 409 59 409 59 C 410 60 410 60 410 61 C 410 63 409 64 408 65 L 389 78 L 409 100 C 409 101 410 102 410 104 C 410 104 410 105 409 105 C 409 106 409 106 408 107 C 408 107 407 108 407 108 C 406 108 406 108 405 108 C 404 108 403 108 402 107 L 380 83 L 375 87 L 375 103 C 375 105 374 106 373 107 C 372 108 371 108 370 108 C 368 108 367 108 366 107 C 365 106 365 105 365 103 L 365 39 C 365 37 365 36 366 35 C 367 34 368 34 370 34 Z M 441 56 C 448 56 454 59 460 64 C 462 66 464 69 465 72 C 467 75 467 79 467 82 C 467 84 467 85 466 86 C 465 87 464 87 462 87 L 426 87 C 426 89 427 90 428 92 C 429 93 430 94 431 95 C 433 96 434 97 436 98 C 438 98 439 99 441 99 C 443 99 445 98 447 98 C 449 97 450 96 452 95 C 453 94 454 94 455 94 C 456 94 457 94 458 95 C 459 96 460 97 460 99 C 460 100 459 101 458 102 C 453 106 448 108 441 108 C 434 108 428 106 423 101 C 418 96 415 89 415 82 C 415 75 418 69 423 64 C 428 59 434 56 441 56 Z M 499 56 C 500 56 502 56 503 57 C 505 57 506 57 507 58 C 509 58 510 59 511 59 C 512 60 512 61 512 63 C 512 63 512 64 512 65 C 511 65 511 66 511 66 C 510 67 510 67 509 67 C 508 68 508 68 507 68 C 507 68 506 67 505 67 C 503 66 501 66 499 66 C 496 66 494 66 492 67 C 490 68 489 69 487 71 C 486 72 484 74 484 76 C 483 78 482 80 482 82 L 482 104 C 482 105 482 106 481 107 C 480 108 479 108 478 108 C 476 108 475 108 474 107 C 473 106 473 105 473 104 L 473 61 C 473 60 473 59 474 58 C 475 57 476 56 478 56 C 479 56 480 57 481 58 C 482 59 482 60 482 61 L 482 62 C 485 60 487 59 490 58 C 493 57 496 56 499 56 Z M 225 66 C 223 66 221 66 219 67 C 217 68 215 69 214 71 C 212 72 211 74 210 76 C 210 78 209 80 209 82 C 209 85 210 87 210 89 C 211 91 212 92 214 94 C 215 95 217 96 219 97 C 221 98 223 99 225 99 C 228 99 230 98 232 97 C 234 96 236 95 237 94 C 238 92 240 91 240 89 C 241 87 242 85 242 82 C 242 80 241 78 240 76 C 240 74 238 72 237 71 C 236 69 234 68 232 67 C 230 66 228 66 225 66 Z M 283 66 C 281 66 279 66 277 67 C 275 68 273 69 272 71 C 270 72 269 74 268 76 C 267 78 267 80 267 82 C 267 85 267 87 268 89 C 269 91 270 92 272 94 C 273 95 275 96 277 97 C 279 98 281 99 283 99 C 285 99 287 98 289 97 C 291 96 293 95 295 94 C 296 92 297 91 298 89 C 299 87 299 85 299 82 C 299 80 299 78 298 76 C 297 74 296 72 295 71 C 293 69 291 68 289 67 C 287 66 285 66 283 66 Z M 441 66 C 439 66 438 66 436 67 C 434 67 433 68 431 69 C 430 70 429 71 428 73 C 427 74 426 76 426 77 L 457 77 C 456 76 456 74 455 73 C 454 71 452 70 451 69 C 450 68 448 67 446 67 C 445 66 443 66 441 66 Z M 33 42 L 33 60 L 14 60 L 14 42 L 33 42 Z M 55 42 L 55 60 L 36 60 L 36 42 L 55 42 Z M 77 42 L 77 60 L 58 60 L 58 42 L 77 42 Z M 99 42 L 99 60 L 80 60 L 80 42 L 99 42 Z M 121 42 L 121 60 L 102 60 L 102 42 L 121 42 Z M 99 21 L 99 39 L 80 39 L 80 21 L 99 21 Z M 77 21 L 77 39 L 58 39 L 58 21 L 77 21 Z M 55 21 L 55 39 L 36 39 L 36 21 L 55 21 Z M 99 0 L 99 18 L 80 18 L 80 0 L 99 0 Z" stroke="none" stroke-linejoin="miter" stroke-linecap="butt" fill="#2396ed" fill-rule="nonzero" transform="translate(867 173)"/>
    <g transform="translate(1454 0)">
        <g >
            <g>
                <path d="M 255 89 C 255 88 254 87 254 86 C 254 85 254 84 254 83 L 253 82 C 250 80 247 78 244 77 C 241 75 238 74 235 73 C 228 52 215 34 198 21 C 180 7 159 0 137 0 C 116 0 95 7 77 21 C 60 34 47 52 39 73 C 37 74 34 75 31 77 C 28 78 25 80 22 82 L 21 83 C 21 84 21 85 21 86 C 20 87 20 88 20 89 C 20 91 20 93 20 94 C 19 98 20 102 20 106 C 20 109 21 113 22 117 C 23 118 23 120 24 122 C 24 123 25 124 25 125 C 25 125 25 125 26 126 C 26 127 26 127 26 127 L 27 128 C 28 129 29 129 29 129 L 31 130 C 31 130 31 130 32 130 C 24 137 16 146 9 157 L 0 171 L 13 160 C 13 160 23 151 41 141 L 41 143 C 40 143 34 146 33 148 C 30 150 30 153 31 160 C 31 163 32 170 34 176 C 37 186 39 188 41 188 C 42 188 43 189 44 189 C 47 189 52 188 55 187 C 58 197 63 207 68 215 C 68 215 68 215 67 215 C 64 213 52 208 48 206 L 40 202 L 45 210 C 45 211 53 224 60 233 C 67 241 76 250 93 250 C 95 250 97 250 99 250 C 104 249 108 249 111 248 C 129 255 148 255 167 248 C 172 246 177 244 181 241 C 188 239 196 238 200 236 C 200 236 201 236 202 236 C 207 235 216 233 221 223 C 226 213 234 198 234 198 L 238 191 L 231 194 C 230 195 221 199 216 201 C 220 193 222 187 222 185 C 225 185 229 185 232 185 C 233 185 235 185 236 185 C 238 184 239 183 242 173 C 243 166 244 160 245 156 C 245 150 245 146 242 144 C 241 143 237 140 235 139 C 236 139 237 139 237 139 L 239 132 C 239 132 240 131 241 131 C 242 131 243 130 244 130 L 246 129 C 246 129 247 129 247 128 L 248 127 C 249 127 249 127 249 127 C 249 125 250 125 250 125 C 250 124 251 123 251 122 C 252 120 252 118 253 117 C 254 113 254 109 255 106 C 255 102 255 98 255 94 C 255 93 255 91 255 89 L 255 89 Z" stroke="none" stroke-linejoin="miter" stroke-linecap="butt" fill="#0e0f0d" fill-rule="nonzero"/>
            </g>
            <g transform="translate(142 228)">
                <path d="M 7 5 C 6 5 4 5 3 5 C 2 5 1 6 0 6 L 0 6 C 1 3 2 1 2 0 C 4 1 5 3 7 5" stroke="none" stroke-linejoin="miter" stroke-linecap="butt" fill="#e1c5a2" fill-rule="nonzero"/>
            </g>
            <g transform="translate(55 128)">
                <path d="M 93 0 C 90 2 88 3 86 5 L 78 10 C 73 10 69 11 69 11 C 69 11 68 11 68 12 C 68 12 68 12 68 13 L 60 39 L 17 48 L 4 39 L 0 7 C 8 6 18 4 30 3 C 29 5 27 6 26 8 L 19 18 L 29 11 C 30 11 36 7 47 1 C 58 1 70 0 83 0 C 86 0 90 0 93 0 L 93 0 L 93 0 Z M 27 36 C 30 34 33 34 38 34 C 39 34 40 34 40 34 C 41 34 41 34 42 34 C 47 34 52 35 52 26 C 52 17 48 10 42 10 C 37 10 32 18 32 26 C 32 28 32 30 33 31 C 28 32 27 35 27 36 L 27 36 L 27 36 Z" stroke="none" stroke-linejoin="miter" stroke-linecap="butt" fill="#a89983" fill-rule="nonzero"/>
            </g>
            <g transform="translate(141 130)">
                <path d="M 80 6 L 76 33 L 62 42 L 20 37 L 12 11 C 12 11 12 10 11 10 C 11 10 6 8 0 8 L 1 8 C 2 8 16 6 34 0 C 53 1 69 4 80 6 L 80 6 L 80 6 Z M 53 31 C 53 30 51 27 46 27 C 47 26 47 24 47 22 C 46 14 41 7 36 7 C 30 7 27 14 27 23 C 28 31 32 31 38 31 C 45 31 49 29 53 31 L 53 31 L 53 31 Z" stroke="none" stroke-linejoin="miter" stroke-linecap="butt" fill="#a89983" fill-rule="nonzero"/>
            </g>
            <g transform="translate(174 142)">
                <path d="M 6 3 C 6 4 4 6 3 6 C 1 6 0 4 0 3 C 0 1 1 0 3 0 C 4 0 6 1 6 3" stroke="none" stroke-linejoin="miter" stroke-linecap="butt" fill-rule="nonzero"/>
            </g>
            <g transform="translate(95 144)">
                <path d="M 6 3 C 6 4 4 6 3 6 C 1 6 0 4 0 3 C 0 1 1 0 3 0 C 4 0 6 1 6 3" stroke="none" stroke-linejoin="miter" stroke-linecap="butt" fill-rule="nonzero"/>
            </g>
            <g transform="translate(225 144)">
                <path d="M 15 3 C 14 2 12 1 10 0 L 6 25 C 6 25 6 26 5 26 L 0 30 C 0 30 0 31 0 31 C 5 32 10 29 13 26 C 14 21 15 16 15 11 C 16 5 15 4 15 3" stroke="none" stroke-linejoin="miter" stroke-linecap="butt" fill="#e1c5a2" fill-rule="nonzero"/>
            </g>
            <g transform="translate(128 236)">
                <path d="M 33 6 C 30 5 27 3 24 1 C 24 0 24 0 23 0 C 21 0 19 1 17 1 C 16 1 15 1 14 1 L 13 1 L 13 1 C 9 6 4 8 0 10 C 12 12 26 8 33 6" stroke="none" stroke-linejoin="miter" stroke-linecap="butt" fill="#e1c5a2" fill-rule="nonzero"/>
            </g>
            <g transform="translate(35 148)">
                <path d="M 18 33 C 17 33 17 32 17 32 L 11 27 C 10 27 10 27 10 26 L 7 0 C 4 1 1 3 1 3 C 0 4 0 5 0 12 C 1 16 2 23 4 29 C 8 31 12 34 18 33" stroke="none" stroke-linejoin="miter" stroke-linecap="butt" fill="#e1c5a2" fill-rule="nonzero"/>
            </g>
            <g transform="translate(58 151)">
                <path d="M 93 28 C 92 28 92 28 91 27 L 83 0 C 82 0 81 0 80 0 C 79 0 77 0 76 0 L 68 26 C 68 27 67 27 67 28 L 63 28 C 63 30 62 32 58 33 C 52 34 17 45 13 45 C 10 44 6 42 2 40 C 1 37 0 34 0 34 L 0 34 L 0 34 C 0 35 5 49 15 62 C 25 59 34 56 36 55 C 42 46 50 38 56 37 C 57 37 58 37 59 37 C 62 37 65 37 67 38 C 65 36 65 33 64 32 C 64 32 72 38 81 37 C 91 36 96 30 96 30 L 97 29 L 93 28" stroke="none" stroke-linejoin="miter" stroke-linecap="butt" fill="#e1c5a2" fill-rule="nonzero"/>
            </g>
            <g transform="translate(151 181)">
                <path d="M 8 2 C 6 2 5 1 4 0 L 4 1 C 4 1 4 5 0 8 C 8 5 11 5 13 5 C 16 5 17 6 18 7 C 18 7 19 7 19 7 C 25 12 32 18 34 19 C 37 20 45 21 50 21 C 52 21 55 22 57 22 C 58 22 59 22 60 21 C 62 16 65 11 67 5 C 64 7 57 11 54 12 C 50 13 14 4 8 2" stroke="none" stroke-linejoin="miter" stroke-linecap="butt" fill="#e1c5a2" fill-rule="nonzero"/>
            </g>
            <g transform="translate(25 5)">
                <path d="M 225 85 C 225 84 225 83 225 82 C 225 81 225 81 225 80 C 222 78 220 77 217 75 C 214 73 211 72 208 70 C 205 69 202 68 198 66 C 197 66 195 65 194 64 C 192 64 190 63 189 63 C 192 63 196 64 199 65 C 201 65 203 66 206 67 C 190 26 153 0 113 0 C 72 0 35 26 20 67 C 22 66 24 65 27 65 C 30 64 33 63 37 63 C 35 63 33 64 32 64 C 30 65 29 66 27 66 C 24 68 21 69 17 70 C 14 72 11 73 8 75 C 6 77 3 78 1 80 C 1 81 1 81 0 82 C 0 83 0 84 0 85 C 0 86 0 88 0 90 C 0 93 0 97 1 100 C 1 104 2 107 3 110 C 3 112 4 114 4 115 C 5 116 5 117 5 118 C 5 118 6 118 6 119 L 6 119 C 6 119 7 119 7 119 L 8 120 C 9 121 10 121 11 122 C 11 122 11 121 11 121 L 9 111 C 9 110 15 109 24 107 C 23 107 22 107 22 107 C 20 106 17 106 15 105 C 14 104 13 104 13 103 C 12 103 11 102 10 101 C 20 105 41 103 60 101 C 77 99 95 98 112 98 C 129 98 147 99 164 101 C 183 103 204 105 214 101 C 213 102 213 103 212 103 C 211 104 210 104 209 105 C 207 106 205 106 202 107 C 202 107 202 107 201 107 C 212 109 218 110 218 111 L 216 121 C 216 121 217 120 217 120 L 219 119 C 219 119 219 119 220 119 L 220 119 C 220 118 220 118 220 118 C 221 117 221 116 221 115 C 222 114 222 112 223 110 C 224 107 224 104 225 100 C 225 97 226 93 226 90 C 225 88 225 86 225 85" stroke="none" stroke-linejoin="miter" stroke-linecap="butt" fill="#e0d896" fill-rule="nonzero"/>
            </g>
            <g transform="translate(170 69)">
                <path d="M 10 0.00001 C 10 5 10 13 8 21 C 8 21 8 21 8 22 C 5 21 3 21 0 21 C 3 15 4 8 4 5 C 6 4 9 2 10 0" stroke="none" stroke-linejoin="miter" stroke-linecap="butt" fill="#d7c184" fill-rule="nonzero"/>
            </g>
            <g transform="translate(95 69)">
                <path d="M 6 5 C 7 8 7 15 10 21 C 8 21 5 21 2 22 C 2 21 2 21 2 21 C 0 13 0 5 0 0 C 2 2 4 4 6 5" stroke="none" stroke-linejoin="miter" stroke-linecap="butt" fill="#d7c184" fill-rule="nonzero"/>
            </g>
            <g transform="translate(214 85)">
                <path d="M 0 13 C 0 13 0 13 0 13 C 0 13 1 13 1 13 C 3 14 6 15 8 16 C 4 13 2 6 0 0 C 1 8 0 12 0 13" stroke="none" stroke-linejoin="miter" stroke-linecap="butt" fill="#d7c184" fill-rule="nonzero"/>
            </g>
            <g transform="translate(64 68)">
                <path d="M 27 0.00001 L 1 7 C 0 18 0 25 0 28 L 0 28 C 0 28 1 17 3 13 C 4 10 9 9 14 8 C 18 7 24 5 26 11 C 27 15 28 18 29 20 C 27 12 27 4 27 0" stroke="none" stroke-linejoin="miter" stroke-linecap="butt" fill="#d7c184" fill-rule="nonzero"/>
            </g>
            <g transform="translate(182 68)">
                <path d="M 2 0.00001 C 2 4 2 12 0 21 C 1 19 3 15 3 11 C 5 5 11 7 16 8 C 20 9 25 10 26 13 C 28 16 28 25 29 27 C 29 24 29 17 28 7 L 2 0" stroke="none" stroke-linejoin="miter" stroke-linecap="butt" fill="#d7c184" fill-rule="nonzero"/>
            </g>
            <g transform="translate(101 23)">
                <path d="M 1 47 C 2 47 2 48 3 49 C 4 49 4 50 4 50 C 4 50 4 59 8 66 C 8 66 8 66 8 67 C 18 66 27 66 37 66 C 46 66 56 66 65 67 C 65 66 65 66 65 66 C 69 59 69 50 69 50 C 69 50 70 49 70 49 C 71 48 72 47 73 47 L 73 46 C 75 27 71 9 69 1 C 69 7 68 58 55 58 L 38 58 L 36 58 L 20 58 C 6 58 5 0 5 0 L 4 2 C 2 11 -1 28 1 47" stroke="none" stroke-linejoin="miter" stroke-linecap="butt" fill="#d7c184" fill-rule="nonzero"/>
            </g>
            <g transform="translate(53 85)">
                <path d="M 8 13 C 8 13 8 13 8 13 C 8 12 8 8 8 0 C 7 6 4 13 0 16 C 2 15 5 14 8 13 C 8 13 8 13 8 13" stroke="none" stroke-linejoin="miter" stroke-linecap="butt" fill="#d7c184" fill-rule="nonzero"/>
            </g>
            <g transform="translate(224 171)">
                <path d="M 1 5 C 1 6 0 7 0 8 C 3 9 8 10 10 9 C 11 8 12 4 13 0 C 11 3 6 6 1 5" stroke="none" stroke-linejoin="miter" stroke-linecap="butt" fill="#9f8f78" fill-rule="nonzero"/>
            </g>
            <g transform="translate(120 242)">
                <path d="M 0.00001 5 C 7 7 14 8 21 7 C 28 7 37 5 47 1 C 45 1 43 1 41 0 C 33 2 20 5 8 3 C 4 4 2 5 2 5 C 1 5 1 5 0 5" stroke="none" stroke-linejoin="miter" stroke-linecap="butt" fill="#9f8f78" fill-rule="nonzero"/>
            </g>
            <g transform="translate(39 177)">
                <path d="M 14 6 C 14 5 13 5 13 4 C 8 5 3 3 0 0 C 1 3 2 6 3 7 C 5 7 11 7 14 6" stroke="none" stroke-linejoin="miter" stroke-linecap="butt" fill="#9f8f78" fill-rule="nonzero"/>
            </g>
            <g transform="translate(58 180)">
                <path d="M 3 11 C 6 13 11 16 13 16 C 17 17 53 6 59 4 C 62 3 63 1 64 0 L 12 12 C 12 12 12 12 12 12 L 12 12 L 11 12 C 11 12 11 11 10 11 L 8 10 L 2 6 L 2 6 L 0 4 C 0 4 0 4 0 4 C 0 5 0 5 1 5 L 1 6 C 1 6 1 8 3 11" stroke="none" stroke-linejoin="miter" stroke-linecap="butt" fill="#9f8f78" fill-rule="nonzero"/>
            </g>
            <g transform="translate(155 178)">
                <path d="M 64 4 C 65 2 65 1 65 0 L 63 1 L 59 5 L 53 8 C 53 8 53 9 52 9 C 52 9 52 9 52 9 L 0 3 L 0 4 C 1 4 2 5 4 6 C 10 7 46 16 50 15 C 53 15 60 10 63 8 C 63 8 63 8 63 8 C 63 8 63 7 63 6 C 64 5 64 5 64 4" stroke="none" stroke-linejoin="miter" stroke-linecap="butt" fill="#9f8f78" fill-rule="nonzero"/>
            </g>
            <g transform="translate(114 111)">
                <path d="M 50 0.00001 C 49 1 49 1 48 2 C 46 5 42 9 38 13 C 33 13 29 12 24 12 C 15 12 8 13 0 13 C 11 9 23 4 37 2 C 41 1 45 0 50 0" stroke="none" stroke-linejoin="miter" stroke-linecap="butt" fill="#6e6a67" fill-rule="nonzero"/>
            </g>
            <g transform="translate(62 116)">
                <path d="M 40 0.00001 C 36 3 32 6 28 10 C 17 11 8 13 0 14 C 12 8 25 3 40 0" stroke="none" stroke-linejoin="miter" stroke-linecap="butt" fill="#6e6a67" fill-rule="nonzero"/>
            </g>
            <g transform="translate(44 136)">
                <path d="M 187 1 L 183 32 L 162 46 L 108 40 L 100 13 C 100 13 100 12 99 12 C 97 12 95 12 94 12 C 92 12 90 12 88 12 C 88 12 87 13 87 13 L 79 39 L 25 51 L 4 36 L 0 3 C 1 2 2 2 3 1 C 4 1 6 0 7 0 L 11 32 C 11 33 12 33 12 33 L 27 44 C 27 44 27 44 28 44 C 28 44 28 44 28 44 L 72 34 C 72 34 72 34 73 34 C 73 34 73 33 73 33 L 81 7 C 83 6 89 5 94 5 C 99 5 104 6 106 7 L 114 33 C 114 34 115 34 116 34 L 160 39 C 160 39 161 39 161 39 L 176 29 C 176 28 176 28 176 27 L 180 0 C 183 1 186 1 187 1" stroke="none" stroke-linejoin="miter" stroke-linecap="butt" fill="#6e6a67" fill-rule="nonzero"/>
            </g>
            <g transform="translate(185 114)">
                <path d="M 52 5 L 48 20 C 40 18 23 15 0 12 C 8 9 15 5 22 0 C 36 2 46 4 52 5" stroke="none" stroke-linejoin="miter" stroke-linecap="butt" fill="#6e6a67" fill-rule="nonzero"/>
            </g>
            <g transform="translate(39 117)">
                <path d="M 0.00001 2 L 1 6 C 4 4 7 2 9 0 C 5 1 2 1 0 2" stroke="none" stroke-linejoin="miter" stroke-linecap="butt" fill="#6e6a67" fill-rule="nonzero"/>
            </g>
            <g transform="translate(152 110)">
                <path d="M 37 1 C 31 1 25 0 19 0 C 19 0 18 1 17 3 C 14 7 8 15 0 21 C 6 19 29 12 41 1 C 40 1 38 1 37 1" stroke="none" stroke-linejoin="miter" stroke-linecap="butt" fill="#93232c" fill-rule="nonzero"/>
            </g>
            <g transform="translate(94 109)">
                <path d="M 52 0 C 52 0 52 0 52 0 C 49 0 46 0 43 0 L 43 0 C 38 0 34 0 30 0 L 22 4 C 22 4 22 4 22 4 C 20 5 10 10 0 19 C 1 19 2 18 3 18 C 8 14 23 6 45 0 C 47 0 49 0 52 0" stroke="none" stroke-linejoin="miter" stroke-linecap="butt" fill="#93232c" fill-rule="nonzero"/>
            </g>
            <g transform="translate(23 110)">
                <path d="M 74 0.00001 C 70 0 66 0 63 1 C 58 1 54 1 50 1 C 48 2 46 2 43 2 C 43 2 42 2 42 2 C 36 6 15 19 0 37 C 0 36 1 36 1 36 C 28 12 58 3 74 0" stroke="none" stroke-linejoin="miter" stroke-linecap="butt" fill="#93232c" fill-rule="nonzero"/>
            </g>
            <g transform="translate(54 191)">
                <path d="M 165 14 C 165 15 165 15 165 15 C 162 16 158 17 154 17 C 151 17 148 17 145 16 C 139 16 129 15 129 15 L 128 15 L 128 14 C 128 14 119 7 112 1 C 111 1 111 1 111 1 C 110 0 110 0 110 0 C 107 0 101 2 86 7 L 85 7 L 84 7 C 84 7 75 3 63 3 C 62 3 61 3 60 3 C 59 3 53 6 44 19 L 44 20 L 43 20 C 43 20 29 25 13 29 L 13 30 L 12 29 C 11 29 6 26 0 24 C 0 24 1 24 1 24 C 7 29 17 38 19 40 C 19 40 19 40 19 40 C 19 40 19 40 18 39 C 18 39 18 39 18 39 L 18 39 L 18 39 C 21 42 24 44 27 45 C 28 46 30 46 31 47 C 32 47 33 47 34 47 C 34 47 35 47 36 47 C 39 47 43 46 46 46 C 49 46 53 45 56 45 C 59 45 63 44 66 44 C 68 43 69 43 71 43 C 72 43 72 42 73 42 C 74 42 74 41 75 41 C 76 40 77 38 79 37 C 80 36 81 35 82 34 C 84 32 86 29 88 27 C 88 27 88 27 88 27 C 88 27 88 27 88 27 L 88 27 C 89 27 89 27 90 27 C 92 29 94 31 96 33 C 99 35 102 37 105 38 C 106 39 107 39 108 39 C 108 39 108 40 108 40 C 108 40 108 40 108 40 C 108 40 109 40 109 40 C 109 40 110 40 110 40 C 112 39 113 39 115 39 C 119 38 122 38 126 37 C 129 36 133 36 136 35 C 140 34 143 33 147 33 C 148 32 150 32 151 31 C 153 30 155 29 156 28 C 159 26 161 23 163 20 C 163 20 163 20 163 20 C 164 18 165 16 165 14" stroke="none" stroke-linejoin="miter" stroke-linecap="butt" fill="#93232c" fill-rule="nonzero"/>
            </g>
            <g transform="translate(115 29)">
                <path d="M 39 12 L 45 12 L 45 0 L 0 0 L 0 12 L 6 12 L 6 6 L 19 6 L 19 45 L 14 45 L 14 52 L 31 52 L 31 45 L 26 45 L 26 6 L 39 6 L 39 12" stroke="none" stroke-linejoin="miter" stroke-linecap="butt" fill="#93232c" fill-rule="nonzero"/>
            </g>
            <g transform="translate(151 111)">
                <path d="M 50 1 C 50 1 49 1 49 1 C 47 0 44 0 42 0 C 42 0 42 0 42 0 C 30 10 6 18 0 20 C 0 20 0 20 0 20 C 8 19 19 16 31 11 C 37 9 43 5 48 1 C 49 1 49 1 50 1" stroke="none" stroke-linejoin="miter" stroke-linecap="butt" fill="#731b2a" fill-rule="nonzero"/>
            </g>
            <g transform="translate(97 109)">
                <path d="M 42 0.00001 C 20 6 5 14 0 18 C 4 16 9 13 15 11 C 15 11 15 11 15 11 C 16 11 17 10 17 10 C 17 10 18 10 18 10 C 18 10 19 9 19 9 C 20 9 20 9 20 9 C 21 9 21 8 22 8 C 22 8 22 8 23 8 C 23 8 24 8 24 7 C 24 7 25 7 25 7 C 26 7 26 7 27 6 C 27 6 27 6 28 6 C 28 6 29 6 29 6 C 30 5 30 5 31 5 C 31 5 31 5 32 5 C 33 4 34 4 34 4 C 36 3 39 3 41 2 C 43 1 46 1 49 0 C 47 0 44 0 42 0" stroke="none" stroke-linejoin="miter" stroke-linecap="butt" fill="#731b2a" fill-rule="nonzero"/>
            </g>
            <g transform="translate(23 110)">
                <path d="M 74 0 C 58 4 28 13 1 36 C 1 36 0 37 0 37 C 14 27 38 13 67 4 C 68 4 69 4 70 4 C 75 2 80 1 85 0 C 81 0 77 0 74 0" stroke="none" stroke-linejoin="miter" stroke-linecap="butt" fill="#731b2a" fill-rule="nonzero"/>
            </g>
            <g transform="translate(144 203)">
                <path d="M 81 0 C 81 0 81 0 81 1 C 81 1 80 1 80 1 C 80 1 80 1 80 1 C 80 1 79 1 79 1 C 79 1 79 1 79 1 C 79 1 79 2 79 2 C 78 2 78 2 78 2 C 78 2 78 2 78 2 C 78 2 77 2 77 2 C 77 2 77 2 77 2 C 77 3 76 3 76 3 C 75 4 74 6 73 8 C 73 8 73 8 73 8 C 73 8 73 8 73 8 C 73 8 73 8 73 8 C 71 11 69 14 66 17 C 65 18 64 19 62 19 C 61 20 59 21 57 21 C 54 22 50 23 47 23 C 43 24 40 25 36 26 C 33 26 29 27 26 27 C 24 28 22 28 21 28 C 20 28 20 28 19 28 C 19 28 19 28 19 28 C 19 28 19 28 19 28 C 18 28 18 28 18 28 C 18 28 17 27 16 27 C 13 25 10 23 7 21 C 5 19 2 18 0 16 L 0 16 L 0 16 C 0 16 0 16 0 17 C 0 17 0 17 0 17 C 0 17 0 16 0 16 L 2 19 C 2 19 2 19 2 19 C 3 20 7 25 12 30 C 16 33 20 35 25 35 C 27 35 29 35 31 34 C 32 34 34 34 36 33 C 42 32 48 30 52 29 C 53 29 53 29 53 29 C 54 29 54 29 55 28 C 55 28 56 28 57 28 C 62 27 69 25 73 18 C 74 16 75 14 76 11 C 78 8 79 5 81 2 C 81 2 81 1 81 1 C 81 1 81 1 81 1 C 82 0 82 0 82 0 C 82 0 81 0 81 0" stroke="none" stroke-linejoin="miter" stroke-linecap="butt" fill="#731b2a" fill-rule="nonzero"/>
            </g>
            <g transform="translate(54 215)">
                <path d="M 88 4 L 88 4 C 86 6 84 8 82 10 C 81 11 80 12 79 13 C 77 15 76 16 75 17 C 74 17 74 18 73 18 C 72 19 72 19 71 19 C 69 19 68 20 66 20 C 63 20 59 21 56 21 C 53 21 49 22 46 22 C 43 22 39 23 36 23 C 35 23 34 23 34 23 C 33 23 32 23 31 23 C 30 22 28 22 27 21 C 24 20 21 18 18 16 C 18 16 18 16 18 16 C 19 16 19 16 19 17 C 19 17 19 17 19 16 C 19 16 19 16 19 16 C 17 15 7 5 1 1 C 1 0 0 0 0 0 C 1 1 2 3 3 5 C 5 7 6 9 8 12 C 9 13 10 14 10 15 C 16 22 24 29 39 29 C 40 29 42 29 44 29 C 45 29 45 29 46 29 C 46 29 46 29 47 29 C 60 27 63 27 65 26 C 65 26 66 26 66 26 C 66 26 67 26 67 26 C 67 26 71 26 75 24 C 78 22 81 20 82 17 C 86 9 87 7 87 7 L 88 4" stroke="none" stroke-linejoin="miter" stroke-linecap="butt" fill="#731b2a" fill-rule="nonzero"/>
            </g>
            <g transform="translate(168 137)">
                <path d="M 8 11 C 10 11 11 10 11 8 C 11 7 10 5 8 5 C 7 5 5 7 5 8 C 5 10 7 11 8 11 L 8 11 L 8 11 Z M 25 24 C 22 22 18 24 10 24 C 5 24 0 25 0 16 C 0 7 3 0 9 0 C 14 0 19 7 20 15 C 20 18 20 19 19 21 C 24 20 25 23 25 24 L 25 24 L 25 24 Z" stroke="none" stroke-linejoin="miter" stroke-linecap="butt" fill="#0e0f0d" fill-rule="nonzero"/>
            </g>
            <g transform="translate(81 139)">
                <path d="M 17 11 C 18 11 19 10 19 8 C 19 7 18 5 16 5 C 15 5 14 7 14 8 C 14 10 15 11 17 11 L 17 11 L 17 11 Z M 25 16 C 25 24 21 24 15 24 C 15 24 14 24 14 24 C 13 24 12 24 12 24 C 6 24 3 23 0 25 C 0 25 1 22 6 21 C 6 20 5 18 5 16 C 5 7 10 0 16 0 C 21 0 25 7 25 16 L 25 16 L 25 16 Z" stroke="none" stroke-linejoin="miter" stroke-linecap="butt" fill="#0e0f0d" fill-rule="nonzero"/>
            </g>
            <g transform="translate(50 18)">
                <path d="M 160 77 C 160 78 160 78 160 79 C 158 78 156 77 153 77 C 146 75 139 74 132 73 C 131 73 131 73 131 73 C 131 73 131 73 131 73 C 131 72 131 71 131 70 C 133 62 133 54 133 50 L 159 57 C 161 66 160 74 160 77 L 160 77 L 160 77 Z M 128 72 C 128 72 128 73 128 73 C 125 73 122 72 119 72 C 122 66 123 59 123 56 C 126 55 128 53 130 51 C 130 56 130 64 128 72 L 128 72 L 128 72 Z M 47 73 C 47 73 47 72 47 72 C 45 64 45 56 45 51 C 47 53 49 55 51 56 C 51 59 52 66 55 72 C 52 72 50 73 47 73 L 47 73 L 47 73 Z M 43 73 C 39 74 36 74 32 75 C 28 75 25 76 21 77 C 19 77 17 78 14 78 C 14 78 14 78 14 78 C 14 75 14 67 15 57 L 41 50 C 41 54 41 61 43 69 C 43 71 43 72 44 73 C 44 73 44 73 44 73 C 43 73 43 73 43 73 L 43 73 L 43 73 Z M 174 84 C 174 84 174 84 174 83 C 173 83 173 83 172 83 C 172 83 172 83 172 83 C 172 83 172 83 172 83 C 169 81 167 81 164 80 C 164 80 164 80 163 79 C 163 79 163 79 163 79 C 163 79 164 74 164 67 C 164 63 163 60 162 55 C 162 55 162 54 161 54 L 158 53 C 157 24 145 11 144 10 C 155 27 155 47 155 52 L 132 46 C 132 46 132 46 132 46 C 132 46 131 46 131 46 C 131 46 131 46 131 46 C 131 46 131 46 131 46 C 131 46 131 46 131 46 C 131 46 131 46 130 46 C 130 46 130 46 130 46 C 130 46 130 46 130 46 C 130 46 130 46 130 46 C 130 46 130 46 130 46 C 130 46 130 46 130 46 C 130 46 129 47 128 48 C 128 45 128 42 128 38 C 128 38 128 37 128 37 C 127 27 125 12 118 0 C 118 0 119 2 120 6 C 122 15 125 32 123 52 C 123 52 123 52 123 52 C 123 52 123 52 123 52 C 122 53 122 53 121 54 C 120 54 120 55 120 55 C 120 55 120 64 116 71 C 116 72 116 72 116 72 C 106 71 97 71 87 71 C 78 71 68 71 59 72 C 59 72 59 72 59 71 C 55 64 55 55 55 55 C 55 55 54 54 54 54 C 53 53 52 53 51 52 C 49 34 52 17 55 7 C 56 3 57 0 57 0 C 46 18 46 40 46 48 C 45 47 45 46 45 46 C 44 46 44 46 44 46 C 44 46 44 46 44 46 C 44 46 44 46 44 46 C 44 46 44 46 44 46 C 44 46 44 46 44 46 C 44 46 44 46 44 46 C 44 46 44 46 44 46 C 44 46 43 46 43 46 C 43 46 43 46 43 46 C 43 46 43 46 43 46 C 43 46 43 46 43 46 L 20 52 C 20 47 19 27 30 10 C 30 11 18 24 17 53 L 13 54 C 13 54 12 55 12 55 C 11 60 11 63 11 67 C 10 74 11 79 11 79 C 11 79 11 79 11 79 C 11 80 11 80 10 80 C 8 81 5 81 3 83 C 3 83 2 83 2 83 C 2 83 2 83 2 83 C 2 83 1 83 1 84 C 1 84 1 84 0 84 C 0 84 0 84 0 84 C 2 83 3 83 5 82 C 7 82 9 82 11 81 C 14 81 18 80 21 80 C 25 79 29 79 32 78 C 36 78 40 78 43 78 C 58 77 73 76 87 76 C 102 76 117 77 131 77 C 135 78 138 78 142 78 C 146 79 149 79 153 80 C 157 80 160 81 164 81 C 166 82 167 82 169 82 C 171 83 173 83 175 84 C 174 84 174 84 174 84 L 174 84 L 174 84 Z" stroke="none" stroke-linejoin="miter" stroke-linecap="butt" fill="#0e0f0d" fill-rule="nonzero"/>
            </g>
            <g transform="translate(111 24)">
                <path d="M 31 11 L 31 49 L 36 49 L 36 57 L 18 57 L 18 49 L 23 49 L 23 11 L 11 11 L 11 17 L 5 17 L 5 5 L 50 5 L 50 17 L 43 17 L 43 11 L 31 11 L 31 11 L 31 11 Z M 54 22 L 54 0 L 0 0 L 0 22 L 15 22 L 15 15 L 19 15 L 19 45 L 14 45 L 14 61 L 41 61 L 41 45 L 35 45 L 35 15 L 39 15 L 39 22 L 54 22 L 54 22 Z" stroke="none" stroke-linejoin="miter" stroke-linecap="butt" fill="#0e0f0d" fill-rule="nonzero"/>
            </g>
        </g>
    </g>
</svg>